<svg version="1" xmlns="http://www.w3.org/2000/svg" width="774.667" height="774.667" viewBox="0 0 581.000000 581.000000"><path d="M316 23l-3.5.5-.2 11.3c-.1 7-.6 11.9-1.3 12.8-2.3 2.6-8.6 3.8-13 2.5-5.3-1.6-6.3-4-6.4-16.6l-.1-10-3.3-.3c-3.7-.4-18.5 2.4-21.4 3.9-2.5 1.4-2.3 3.3 1.8 12.4 5.6 12.7 6.3 14.9 5.2 16.9-1 1.7-8.1 5.5-10.4 5.6-.6 0-2.5-2.8-4.3-6.3-5.6-11-15.3-21.7-19.6-21.7-2.1 0-11 7.7-11.9 10.3-1.2 3.3 0 4.6 15.2 18l10.4 9-2.9 1.2c-1.5.7-4.8 2.8-7.2 4.8l-4.4 3.5-3.4-3.2c-1.9-1.7-7.2-5.4-12-8.3-7.5-4.5-8.8-5-11-4-2.1.9-10.3 11.8-10.3 13.7 0 .4 2.1 1.5 4.8 2.5 5.8 2.2 13.1 6.9 19.8 12.7l5.1 4.4-2.3 1.7c-1.3.9-3.3 4.4-4.5 7.7l-2.1 5.9-2.7-1.4c-1.4-.8-6.6-4.1-11.6-7.4-4.9-3.4-9.9-6.1-11.1-6.1-3.3 0-8.7 4.2-10.7 8.4-2.2 4.7-1.8 6.1 2.2 6.9 1.7.4 7.9 2.6 13.8 5.1 5.9 2.4 12.3 5 14.1 5.6 4.4 1.7 4.1 4.2-.8 6.4-2.2 1-5.4 2.9-7.1 4.3l-3 2.5-10.4-5.1c-11.3-5.7-14.9-6.5-18.1-4.4-2.3 1.5-4.9 6.9-5.8 12-.5 2.8-.2 3.3 1.7 3.7 11.1 2.1 14.8 3.1 18.7 4.7 2.5 1 6.4 2.3 8.8 2.9 2.4.6 4.5 1.7 4.8 2.5.3.8-.7 3.3-2.3 5.7-1.5 2.4-3.3 5.2-3.9 6.3-1.6 3-5.7 2.9-12.3-.1-10.8-4.8-17 .2-14 11.2.8 2.9 1.4 3.3 7.1 4.3 10.5 1.9 14.3 1.9 19.4.2 6-2.1 8.2-1.7 9 1.6 1 4-.8 7.6-5.1 10-3.3 1.9-5.5 2.3-12.8 2.3-8 0-9 .2-11.3 2.5-2.7 2.7-2.7 3.2.2 11 2.5 7.1 9.4 9.3 16.9 5.5 9.5-4.8 14.7-4.9 10.1-.1-3.4 3.6-5.6 9.2-5.6 14.5 0 4.1-.2 4.5-3.3 5.5-10.2 3.4-22.8 23-25.8 40-1.3 6.9.5 12.4 4.5 14.2 2.3 1.1 3.5.4 16.3-9.2 7.6-5.7 15.3-11.4 17.2-12.7 4.1-3 6.1-7.6 6.1-14.2 0-6.1.4-6.2 10.3-1.5 13.3 6.3 21.5 5.7 29.2-2.2 2.8-2.9 4.7-5.8 5.1-8.1.7-3.7-.2-21.9-1.2-24.6-.7-1.8-7.6-5.2-12.4-6.1-5.7-1-12.5-4.9-12.5-7.1 0-2.9 4.2-2.2 10.2 1.9 6.6 4.4 15.2 7.7 20.3 7.7 5.1 0 8-3.5 8-9.5 0-8-7-12.4-24.6-15.5-9.7-1.7-18.9-5.1-22.4-8.2-4.2-3.8-5.2-5.8-5.7-12.6-.5-6.6-.3-7.1 2.6-10.4 3.2-3.7 11.8-8.1 15.8-8.1 1.3 0 3.6.6 5.2 1.3 4.9 2 5.2 6 .6 6-3.5 0-7 1.6-9.5 4.2-1.7 1.8-2 3.1-1.6 6.2.7 5 3.7 8.1 8.9 9.4 4.4 1.1 12.9.9 15.9-.3 4.8-1.9 8.2-13.4 9.3-31 .4-5.5 1.4-12.2 2.5-15.1 2.2-6.3 9.4-17.7 15.2-24.1 4.5-4.8 12.2-10.3 14.6-10.3.7 0 2-.6 2.8-1.4.8-.8 4.6-1.7 9-2.1 7.1-.7 32.8-.1 41.9 1 2.2.2 6.9.7 10.5.9 3.6.3 9.9.8 14 1.2 6.8.6 7.7.4 9.4-1.5 1.6-1.8 1.8-2.9 1.1-8.3-1.4-11.9-1-17 1.8-21 2.1-3.1 4.7-10.6 8.3-23.2 3-10.8 3.1-10.7-7.1-11.1-2.7-.1-6.4-.4-8.1-.8-2.1-.5-3.5-.2-4.2.6-.6.7-1.3 5.8-1.4 11.3l-.3 9.9-6.7.3c-5.7.2-6.8 0-7.7-1.6-.6-1.1-.8-2.2-.6-2.4 1-1 4.2-17.6 3.6-18.6-.3-.5-3.6-1.2-7.3-1.5-3.7-.3-7.1-.8-7.5-1-.5-.3-1.8-.1-3 .4-1.9.7-2.3 1.6-2.3 5.3 0 5.9-1.8 14.2-3.3 15.5-3.2 2.6-12.3 1.5-12.9-1.7-.2-.9 0-3.7.4-6.2 1.4-8.4 1.5-13 .4-14.4-1.2-1.6-9-2.4-14.6-1.6zm52.3 42c4.5 1.3 10 6.4 9.5 8.8-.8 4.4-5 4.7-33.8 2.4-14.3-1.1-35.6-.7-43.8.7-8.3 1.5-15.1 5.5-29.4 17.7-7.5 6.4-8.7 7.9-12.9 16.5-2.5 5.2-5.4 11.7-6.4 14.5-1.6 4.5-2.3 5.3-5.5 6.3-4.7 1.4-7.7 1.4-8.5.1-.4-.6 1-6.2 2.9-12.4 4.5-13.8 6.7-16.7 28.7-37.1 9.5-8.9 21.8-14.9 36.9-18.1 8-1.7 56.3-1.2 62.3.6zM238.1 221.3c2.5 1.7 3.7 3.4 4.5 6.7.6 2.5.9 5.3.6 6.4-.6 2.2-5.8 5.5-8 5.1-1-.2-2.5-.4-3.5-.4-3.5-.2-6.7-4.6-6.7-9.3.1-4.9 1.2-6.8 5.5-9.1 3.8-2.1 3.6-2.1 7.6.6z"/><path d="M311 103.9c-11.8 2.2-19.8 6.2-23.7 11.7-2.9 4.2-6.7 12.1-8.8 18.3-5.2 15.7-.8 34.2 11 45.6 6.1 6 20.2 13.5 29.4 15.8l5.3 1.4-8.3 3.3c-9.5 3.8-18.5 8.8-23.4 13.2-8.6 7.5-13.8 27.5-9.4 35.9.6 1.2-.3 2.4-3.9 5-5 3.5-17.4 7-29.8 8.3-7.5.8-16.2 3-21.7 5.5-4.4 2.1-9.7 6.5-9.7 8.1 0 .6-2.4 3.6-5.3 6.8-12.9 14.1-21.4 31.4-23.1 47.4-.5 4.8-2.1 8.8-3.5 8.8-1 0-2.2-2.8-10-22.5-7.6-19.3-8.8-21.7-13.9-29.2-8.9-13-10.2-19.9-5.2-27.3 10.2-15.1 11.7-33.2 3.5-43.4l-2.3-2.9-3.6 2.2c-2 1.3-3.6 2.7-3.6 3.2s-1.3.9-2.9.9c-4.1 0-5.7 2.3-4.4 6.3 1.3 4.2.8 13.9-.9 16.9-1.2 2.2-1.7 2.3-5.4 1.6-4.8-1-11.6-6.4-13.4-10.8-.7-1.6-1.9-3-2.7-3-1.2 0-1.2-.3.1-2.2.9-1.2 1.6-3.3 1.6-4.5 0-1.6 1.5-3.4 4.7-5.8 4.6-3.3 22.5-12.7 30.6-15.9 3.2-1.3 3.7-1.9 3.7-4.7 0-3.7-3.2-10.8-5.9-13.4-1.1-.9-3.7-1.9-5.8-2.2-3.3-.4-5.9.6-18.8 7.2-8.2 4.2-17.3 9-20.1 10.6-2.8 1.6-5.4 2.9-5.8 2.9-.3 0-.6-1.8-.6-4 0-4.7 4-9.9 9.8-12.5 8.5-3.9 40.1-23 40.4-24.4.7-2.6-.5-5.7-3.9-10.5-4.2-6-6.9-6.6-14.2-3.3-3.1 1.5-10.1 4.3-15.6 6.3s-11.8 4.5-13.9 5.6c-2.2 1.1-6 2.6-8.6 3.4-5.9 1.7-15.2 8.4-17.9 12.7-3.5 5.6-7.4 22.2-7.5 31.7-.2 13.3 1 15.3 16.6 29.5 7.2 6.6 13.8 12.7 14.7 13.6 3.4 3.4 14.4 12 17 13.4 2.7 1.3 4.7 4.2 3.7 5.2-1.1 1.2-6.6.9-14.9-.8-13.4-2.6-17.4-3.1-25.6-3.1-8.5-.1-10.1 1-10.1 7.1 0 4.9 5.3 19.8 8.1 22.7 4.8 5.2 13.3 4.1 29.7-3.7 5.9-2.7 12.9-6.4 15.5-8.1 4.1-2.6 5.2-2.9 7.2-2 3.1 1.4 6.9 8.9 9.6 18.7 1.1 4.2 6.9 18.1 12.7 31 11.3 24.7 14.3 29.2 24.3 36.5 4.9 3.5 7.8 3.4 13.9-.6 4.3-2.8 7-6.3 10.2-13 1.4-2.7 7.2-13.9 13-24.9 5.8-11 11.1-21.7 11.8-23.7.6-2.1 1.5-4 2-4.3.5-.3 3.2 3 6.1 7.2 10.3 15.4 29.4 43.1 40.9 59.3 6.4 9.1 13.3 19.5 15.2 23.1l3.6 6.6-3.5 1.8c-3.8 2.1-8.7 7.7-10.4 12.1-.6 1.6-1.1 5.3-1.1 8.2-.1 2.8-.2 5.2-.4 5.2-.4 0-37.3-10.7-51.9-15-7.7-2.3-19.8-5.8-27-7.6-19.9-5.3-31.5-9-49-15.8-8.8-3.5-20-7.8-25-9.6-11.1-4-27.4-12.1-29.7-14.7-3.1-3.4-6-11.4-6-16.5 0-6.2 3.2-11.3 9.9-15.6 7.1-4.6 10.1-4.9 16.7-1.9 7.2 3.3 8.8 6.3 6.1 11.3-2.4 4.6-5.1 6.1-7.3 4.1-3.9-3.3-10.2-2.6-10.2 1.2 0 2.6 8 11.2 14 15.1 7.1 4.6 11.9 4.5 16.1-.1 5.9-6.6 7.4-10.5 7.3-19.9-.1-10.3-2.3-15.9-8.6-22.3-11-10.9-30.7-14-45.1-6.9-9.1 4.5-15 10.1-18.9 17.9-2.8 5.8-3.2 7.6-3.2 14.7 0 6.8.6 9.9 3.8 19.1 2.1 6 4.9 13 6.2 15.4l2.5 4.4-8.1 12.8c-4.4 7-8 13.7-8 14.9 0 2.2 4.4 7 6.5 7 .7 0 3.1 1.4 5.4 3.1 2.3 1.6 5 2.9 5.9 2.7 2.9-.5 12.6-16.6 17.6-29 1.6-4.2 2.3-4.5 5.1-2.5 2.3 1.7 2 3-3.9 17.2-7.2 17.4-7.2 22.6 0 26 4.3 2 12 2.8 14.6 1.4 2.2-1.2 4.8-6 4.9-9.1 0-1.3 0-6.4-.1-11.4-.1-6.8.3-10 1.4-12.3 2.5-4.8 6.1-4.2 21 3.4 13.1 6.8 26.7 11.9 34.6 13 2.5.4 4.6.8 4.7.9.1.1-2.4 7.7-5.5 16.9-4.4 12.9-5.4 17.1-4.6 18.4 1.3 2.1 8.9 4.2 16.3 4.5l5.4.3 4.9-15c2.6-8.2 4.8-15.8 4.8-16.7 0-2.1 1.8-2.4 2.6-.5.2.7-1.2 6.2-3.2 12.2-2 6-3.9 13.5-4.1 16.6-.5 5.6-.5 5.8 2.5 7.3 1.7.9 4.4 1.6 6 1.6 5.1 0 6.3-1.8 7.3-11.1 1.9-17.7 3.3-23.7 5.7-24.7.8-.3 3.5.5 6.1 1.8 5.5 2.7 26.4 10 28.6 10 .9 0 3 .7 4.6 1.6 3 1.5 3 1.6 1.3 3.6-1.6 1.7-2.5 1.8-6.4 1.2-15.3-2.6-21.7 2.3-22.8 17.5-.4 5.4-.1 7.5 1.6 10.7 3.9 7.7 14.6 15.2 40.2 28.2 9.1 4.6 16.9 8.8 17.4 9.3 3.1 2.9-12.5-1.1-51.4-13.1-28.8-8.9-58.5-17.8-66.5-20-3.6-.9-4.4-1.8-8.5-9.2-10-18.2-21.8-25.6-25.7-16-1.2 3-1.2 3.4 1.2 5.8 1.8 1.8 3.1 2.3 4.9 1.8 2.9-.7 2.9-.8 5.6 14.5l1.9 11.5-3.7 3.3c-9.3 8.4-19.3 12-31.4 11.4-3.7-.1-9.4-5.4-10.9-9.9-2.6-7.9-.7-21.8 4.7-34 1.3-3 2.1-5.9 1.7-6.2-2-1.7-17.4-7.1-19.5-6.8-1.7.2-2.4 1-2.6 3.1-.5 4.1 2.4 11.9 5.9 15.8 4.1 4.6 4.5 7 1.9 13.9-4.3 11.4-2.4 20 6.1 28.2 5.1 4.9 4.5 6.7-.9 3-3-2.1-12.4-4.2-18.3-4.2-8.2 0-9.9-5.7-9.6-30.5l.3-18 3.2-5.6c3.6-6.3 3.4-8.6-.7-9.5-1.4-.4-5.7-1.7-9.4-2.9-3.8-1.3-7.7-2.1-8.6-1.8-2.4.6-5.8 12.2-8.6 29.3-2.2 13-.5 31 3.7 39.4 4.9 9.9 12 14.3 28.3 17.6 23.7 4.9 44.6-.2 58.5-14.4 2.4-2.5 4.7-4.3 5-4.1.4.2 5.6.7 11.6 1 6.7.4 14.2 1.6 19.5 3 4.7 1.4 11 3.1 14 3.9 3 .8 13.1 3.5 22.4 6.1 33.4 9.1 74.1 18.7 89 21 11.9 1.8 17.9.2 23.4-6 5.5-6.3 3.8-14-5.2-24.1-4.6-5.1-24.9-20.1-38.9-28.8-5.7-3.5-7.9-5.5-8.7-7.8-2.3-6.5 1.5-5.6 15.8 3.7 9.9 6.4 24.5 13.3 31.1 14.7 5.4 1.1 5.8 1.4 8.5 6.2 4.4 7.7 12.1 15 17.7 16.5 6.2 1.7 7.9 1.1 27.9-10.3 29.3-16.7 50.6-31 62.5-42 5.7-5.4 7.7-5.9 6.4-1.9-3.7 12.2-8.4 25.6-10.3 29.3-2.1 4.2-2.4 4.5-5.7 4.2-5.4-.5-17.1 2.3-23.7 5.6-6.6 3.4-16.7 11.4-22.8 18.1-3.9 4.3-4 4.5-3.7 11 .3 8.2 2.5 16.2 5.1 18.5 1.5 1.4 2.9 1.7 5.6 1.2 3.1-.6 3.5-.4 3.5 1.3 0 3.5 2.2 7.1 4.8 7.8 4 1 5.4-1.6 5.8-10.2.4-11.6 3.1-18.3 8.5-21.1 5.3-2.7 12.3-.9 18.5 4.8 6 5.5 8.9 13.3 9.3 25.1.1 1.5 1.2 3.9 2.6 5.2 3.3 3.4 7.4 3.3 10.9-.4 2.3-2.4 3-4.4 4-11.8.7-4.8 1.1-10.5 1-12.6-.3-3.6-.2-3.7 2.9-3.7 5.3.1 10.8 1.7 12.2 3.7 2 2.6 11.2 21.2 12.8 25.7 2.3 6.6 12.2 10.2 14.8 5.5 2.2-4.2-1.1-20.7-6.5-32.6-3.2-6.9-15.5-19.3-24.2-24.3l-6-3.5 1.3-5.5c.7-3 1.3-6.7 1.3-8.3 0-3.2-.1-3.2 11-1.2s22.4 2 23.9.1c2.1-2.5 2.5-11.7.8-15.8-2.5-5.9-4.3-6.6-24.7-9.4-7.9-1.1-7.9-1.1-6.9-4.6.5-1.8.9-4.7.9-6.4v-3l7.3 1.8c3.9 1.1 10.9 2.2 15.3 2.5 7.4.5 8.3.4 10.3-1.6 1.8-1.8 2.1-3.3 2.1-9.5 0-8.4-1.1-12.4-3.7-13.2-1-.3-5.1-2.1-9-4-21.5-10.1-44.7-10.8-61-2-5.6 3.1-23.1 16.5-34.3 26.4-10.7 9.4-11.5 10-10.5 8.2.5-.8 3-4.7 5.6-8.6 9.8-14.5 13.9-25.5 10.6-29.2-2.6-2.9-3.8-9.8-4-23.5l-.3-13.2-4.5-3.5c-2.5-1.9-14-14.7-25.4-28.5-26.2-31.4-24.4-29.4-46.7-51.6-12.2-12.1-18.8-19.4-18.8-20.8 0-1.9.1-2 4.8-.5 2.6.8 7.9 2.2 11.7 3 16.3 3.6 29.5 12.1 37.1 24 3.5 5.4 29.7 41.9 39.7 55.3 13.3 17.7 18.7 21.4 28.3 19.6 10.9-2 24.4-26 24.4-43.4 0-4.2.5-5.7 2.5-7.6 2.8-2.9 5.4-3.1 9.6-.9 3 1.5 20.6 3.9 35 4.8 8.7.5 11.3-.6 12.4-5.2.3-1.6.1-4.1-.4-5.5-1.6-4.1-7.9-9.7-10.9-9.8-1.5 0-3.4-.2-4.3-.4-2.2-.4-19.1-1.7-25.9-2l-5.5-.2v-16.8l22.1-.1c12.1 0 22.8-.3 23.7-.7 2.2-.8 2.2-5.1-.2-10.3-3-6.7-7.7-8.3-24.5-8.7-13.2-.3-14-.4-15.8-2.7-2.3-2.8-1.7-6.7 1.6-12 1.2-1.9 3.3-6.4 4.6-10 6.2-17.1 14-30.9 23.5-41.5 11.1-12.4 12.5-15 12.5-22.4 0-7.3-.5-8.5-3.7-9.5-2.8-.9-3.6.7-5.2 10.1-1.8 10.5-6.2 14.9-11.2 11-2.5-1.9-8.9-13-10.4-17.9-1-3.5-8.4-15.8-11.2-18.8-.3-.3-4.1-.5-8.6-.6-4.5 0-9.4-.4-10.9-.8-2.4-.7-2.9-.5-3.9 2-1.8 4.5-1.4 10.1 1.1 13.7 1.3 1.8 6.1 6.1 10.7 9.7 4.7 3.6 10.5 8.7 13 11.4 4.2 4.7 4.4 5.3 3.9 9.4-.6 5.3-2 7.2-5.3 7.2-2.6 0-2.8-.1-17.6-16.2-5.8-6.2-10.8-10.8-12.2-11.1-3.4-.6-6.3 2.8-8.5 9.9-2.6 8.5-1.7 10.1 12.6 21.2 6.5 5.1 12.5 9.7 13.3 10.1 1.2.8.8 2.9-2.9 12.7-2.4 6.6-4.4 12.1-4.6 12.2-.1.2-3.1-2.3-6.6-5.6-9.6-9.2-11.8-10.7-13.7-9.5-.9.5-2.9 2.9-4.6 5.2-2.5 3.5-3 5.2-3 9.9 0 5.3.4 6.2 5.1 12.4 2.8 3.7 6.3 9.1 7.8 12l2.8 5.3-10 34.3c-5.5 18.9-10.3 34.6-10.6 34.9-1 1.1-3.5-1.9-7.1-8.5-7.8-14.2-26.8-43.8-35.8-55.7-7.2-9.6-14.3-15.8-22.8-20.3-7.9-4-21.7-8.5-32.9-10.6-14.6-2.8-13.3-2.1-12.5-6.8 1.2-6.6 4.3-14.8 7.1-18.5 5.2-6.8 19.3-16.3 24.5-16.4 5.8-.2 7.3.1 10.5 2l3.1 1.9-1.6 6.2-1.6 6.2-9.7-.6-9.6-.7-3.6 3.2c-3 2.6-3.6 3.8-3.6 7.1 0 5.3 2.5 10.5 5.5 11.2 1.4.4 3.9-.1 5.9-1.1 3.3-1.5 3.8-1.5 7.4.1 4.4 2 10.4 2.3 14.7.6 4.3-1.6 7.9-6.3 12.8-16.3 2.3-4.8 4.8-8.7 5.5-8.7.8 0 3-.8 4.9-1.7 4.8-2.2 6.9-7.2 5.4-12.4-1.3-4.4-3.8-6.2-10.8-7.8-7-1.7-16.5-8-19.9-13.1-2.6-3.9-2.7-4.2-1.2-7.3l1.6-3.2 1 2.6c2.5 6.4 8.1 9.5 18.7 10.3 6.7.6 24.3 4 25.2 5 .8.8-3.2 20.7-5.8 28.6-1.1 3.5-3.2 7.7-4.5 9.3-2 2.3-2.4 4-2.4 9 0 5.4 3.1 20.8 6 30.2.5 1.6 2.1 6.8 3.6 11.5 6.8 21.7 12 27.7 16.4 19 1.8-3.5 7.9-30.6 9.3-41 .6-4.9-.7-8-3.5-8.1-1.3 0-3.3-1.2-4.4-2.7l-2.2-2.7 2.9-13c6.3-28.7 7.1-37.3 4-44.1-5.3-11.5-24.7-19.9-45.1-19.3-7.7.3-12-.5-12-2.2 0-.5.3-.9.8-1 .4 0 1.6-.2 2.7-.5 3.5-.7 35-.6 41.2.1 3.2.4 6.8 1.4 8.1 2.2 3 1.8 4.8.5 6.2-4.6 2-7.3 1.4-10.5-2.9-14.4-4.3-3.9-9.9-6.1-14-5.5l-2.7.4 2.7-6.6c3.8-8.9 4.5-14.9 2.4-19.4-2.3-4.8-7.5-10-12.7-12.4-5.1-2.5-17.6-4.7-21.2-3.8-4.1 1-9.1 6.1-12.1 12.4-3.5 7.1-3.2 6.7-5 5.2-1-.8-1.5-3-1.5-6.5 0-7.7-4.5-13-13.5-16-5.8-1.9-23.8-2.8-30.5-1.6zm88.1 22c1.8 1.5 2.3 2.8 2.2 6.1-.2 3.4-1.2 5.3-5.7 11l-5.6 6.8-5.2-1.3c-6-1.6-9-4.3-9-7.9 0-4 4.4-11.9 8.1-14.3 4.4-2.9 11.9-3.1 15.2-.4zm-68.5 10.2c5.4 3.2 7.1 11.2 3.7 17-2.2 3.7-9.1 7.4-12.4 6.6-11.4-3-16.1-14.5-8.6-21.5 5.6-5.3 10.9-5.9 17.3-2.1zm-42.8 146.3c3 1.5 5.5 4.2 18.6 19.6 7.3 8.6 23.5 26.9 25.6 29 .3.3 2.9 3.2 5.9 6.5 3 3.3 9.2 10 13.9 14.8 17.8 18.5 30 36.2 33.7 49.2 3.2 10.9 4.4 26.3 2.5 32.1-4.5 13.7-20 27.7-39.5 36-14.5 6.1-31 3-50.1-9.5-10.1-6.6-13.8-12.6-9.3-15.4 2.6-1.6 6.3 0 13.1 5.4 9.8 7.9 17.5 11.1 27.8 11.7 13.3.7 18.3-1.1 27.4-10.1 4.1-4 8.6-9.6 10.2-12.7 2.5-5 2.8-6.6 3.1-17.3.3-10.3.1-12.5-2-18.6-3-8.6-10.6-19.7-21.4-31.2-4.6-4.9-8.3-9.3-8.3-9.8 0-.9-9-12.8-13.7-18.1-1.2-1.4-3-3.5-4-4.6-1-1.2-8.1-9.2-15.8-17.9-17-19.2-23-26.6-25.5-31.5-1.9-3.7-1.9-3.7.2-6.4 2.5-3 3.8-3.2 7.6-1.2zm-29.6 3.4c1.5.9 6.8 7.1 11.9 13.7 5.1 6.6 16 19.8 24.3 29.4 18.8 21.6 25.9 30.3 41.6 50.6 13.6 17.7 18.5 26.5 18.5 33.5 0 12.5-15.6 28-28.1 28-5.7 0-10.6-2.2-15.5-7.2-4.1-4.1-4.1-4.3-3.6-10 .6-6.7 3.6-12.2 7.8-14.3 2.5-1.4 3.3-1.4 6.4-.1 2.7 1.2 3.5 2.1 3.5 4.1 0 1.8-.6 2.9-2 3.2-6.4 1.7.2 11.3 7.8 11.3 7.8 0 11.2-5.8 9.2-15.7-2.2-10.5-9.2-17.2-20.2-19.5-5.3-1.1-6.2-1.6-7.8-4.8-3.1-6.1-20.2-29-26.7-35.8-.7-.7-1.8-3.2-2.4-5.5-1.2-4.4-5.3-10.6-16.3-24.7-11.5-14.6-12-15.3-15.3-19.3-1.8-2.1-3.4-4.3-3.4-4.8-.1-.5-.2-1.5-.4-2.2-.2-1.4 4.3-9.9 5.9-10.9 1.5-1.1 1.8-1 4.8 1z"/><path d="M218.6 393.9c1.2 1.1 8.4 3.4 8.9 2.9.3-.2-1.8-1.2-4.7-2.1-2.8-.9-4.7-1.2-4.2-.8z"/></svg>